<svg width="19" height="19" viewBox="0 0 19 19" fill="none" xmlns="http://www.w3.org/2000/svg">
<path d="M4.90479 2.75C4.90479 3.34674 4.66773 3.91903 4.24578 4.34099C3.82382 4.76295 3.25152 5 2.65479 5C2.05805 5 1.48575 4.76295 1.06379 4.34099C0.641838 3.91903 0.404785 3.34674 0.404785 2.75C0.404785 2.15326 0.641838 1.58097 1.06379 1.15901C1.48575 0.737053 2.05805 0.5 2.65479 0.5C3.25152 0.5 3.82382 0.737053 4.24578 1.15901C4.66773 1.58097 4.90479 2.15326 4.90479 2.75Z" fill="#E5E5E5"/>
<path d="M4.90479 9.5C4.90479 10.0967 4.66773 10.669 4.24578 11.091C3.82382 11.5129 3.25152 11.75 2.65479 11.75C2.05805 11.75 1.48575 11.5129 1.06379 11.091C0.641838 10.669 0.404785 10.0967 0.404785 9.5C0.404785 8.90326 0.641838 8.33097 1.06379 7.90901C1.48575 7.48705 2.05805 7.25 2.65479 7.25C3.25152 7.25 3.82382 7.48705 4.24578 7.90901C4.66773 8.33097 4.90479 8.90326 4.90479 9.5Z" fill="#E5E5E5"/>
<path d="M2.65479 18.5C3.25152 18.5 3.82382 18.2629 4.24578 17.841C4.66773 17.419 4.90479 16.8467 4.90479 16.25C4.90479 15.6533 4.66773 15.081 4.24578 14.659C3.82382 14.2371 3.25152 14 2.65479 14C2.05805 14 1.48575 14.2371 1.06379 14.659C0.641838 15.081 0.404785 15.6533 0.404785 16.25C0.404785 16.8467 0.641838 17.419 1.06379 17.841C1.48575 18.2629 2.05805 18.5 2.65479 18.5Z" fill="#E5E5E5"/>
<path d="M11.6548 2.75C11.6548 3.34674 11.4177 3.91903 10.9958 4.34099C10.5738 4.76295 10.0015 5 9.40479 5C8.80805 5 8.23575 4.76295 7.8138 4.34099C7.39184 3.91903 7.15479 3.34674 7.15479 2.75C7.15479 2.15326 7.39184 1.58097 7.8138 1.15901C8.23575 0.737053 8.80805 0.5 9.40479 0.5C10.0015 0.5 10.5738 0.737053 10.9958 1.15901C11.4177 1.58097 11.6548 2.15326 11.6548 2.75Z" fill="#E5E5E5"/>
<path d="M9.40479 11.75C10.0015 11.75 10.5738 11.5129 10.9958 11.091C11.4177 10.669 11.6548 10.0967 11.6548 9.5C11.6548 8.90326 11.4177 8.33097 10.9958 7.90901C10.5738 7.48705 10.0015 7.25 9.40479 7.25C8.80805 7.25 8.23575 7.48705 7.8138 7.90901C7.39184 8.33097 7.15479 8.90326 7.15479 9.5C7.15479 10.0967 7.39184 10.669 7.8138 11.091C8.23575 11.5129 8.80805 11.75 9.40479 11.75Z" fill="#E5E5E5"/>
<path d="M11.6548 16.25C11.6548 16.8467 11.4177 17.419 10.9958 17.841C10.5738 18.2629 10.0015 18.5 9.40479 18.5C8.80805 18.5 8.23575 18.2629 7.8138 17.841C7.39184 17.419 7.15479 16.8467 7.15479 16.25C7.15479 15.6533 7.39184 15.081 7.8138 14.659C8.23575 14.2371 8.80805 14 9.40479 14C10.0015 14 10.5738 14.2371 10.9958 14.659C11.4177 15.081 11.6548 15.6533 11.6548 16.25Z" fill="#E5E5E5"/>
<path d="M16.1548 5C16.7515 5 17.3238 4.76295 17.7458 4.34099C18.1677 3.91903 18.4048 3.34674 18.4048 2.75C18.4048 2.15326 18.1677 1.58097 17.7458 1.15901C17.3238 0.737053 16.7515 0.5 16.1548 0.5C15.558 0.5 14.9858 0.737053 14.5638 1.15901C14.1418 1.58097 13.9048 2.15326 13.9048 2.75C13.9048 3.34674 14.1418 3.91903 14.5638 4.34099C14.9858 4.76295 15.558 5 16.1548 5Z" fill="#E5E5E5"/>
<path d="M18.4048 9.5C18.4048 10.0967 18.1677 10.669 17.7458 11.091C17.3238 11.5129 16.7515 11.75 16.1548 11.75C15.558 11.75 14.9858 11.5129 14.5638 11.091C14.1418 10.669 13.9048 10.0967 13.9048 9.5C13.9048 8.90326 14.1418 8.33097 14.5638 7.90901C14.9858 7.48705 15.558 7.25 16.1548 7.25C16.7515 7.25 17.3238 7.48705 17.7458 7.90901C18.1677 8.33097 18.4048 8.90326 18.4048 9.5Z" fill="#E5E5E5"/>
<path d="M16.1548 18.5C16.7515 18.5 17.3238 18.2629 17.7458 17.841C18.1677 17.419 18.4048 16.8467 18.4048 16.25C18.4048 15.6533 18.1677 15.081 17.7458 14.659C17.3238 14.2371 16.7515 14 16.1548 14C15.558 14 14.9858 14.2371 14.5638 14.659C14.1418 15.081 13.9048 15.6533 13.9048 16.25C13.9048 16.8467 14.1418 17.419 14.5638 17.841C14.9858 18.2629 15.558 18.5 16.1548 18.5Z" fill="#E5E5E5"/>
</svg>
