<svg width="21" height="21" viewBox="0 0 21 21" fill="none" xmlns="http://www.w3.org/2000/svg">
<g clip-path="url(#clip0)">
<path d="M20.7381 17.5V19.5C20.7381 19.7708 20.6556 20.0052 20.4907 20.2031C20.3258 20.401 20.1305 20.5 19.9048 20.5H1.57143C1.34574 20.5 1.15042 20.401 0.985494 20.2031C0.820563 20.0052 0.738098 19.7708 0.738098 19.5V17.5C0.738098 17.2292 0.820563 16.9948 0.985494 16.7969C1.15042 16.599 1.34574 16.5 1.57143 16.5H19.9048C20.1305 16.5 20.3258 16.599 20.4907 16.7969C20.6556 16.9948 20.7381 17.2292 20.7381 17.5ZM20.7381 9.5V11.5C20.7381 11.7708 20.6556 12.0052 20.4907 12.2031C20.3258 12.401 20.1305 12.5 19.9048 12.5H1.57143C1.34574 12.5 1.15042 12.401 0.985494 12.2031C0.820563 12.0052 0.738098 11.7708 0.738098 11.5V9.5C0.738098 9.22917 0.820563 8.99479 0.985494 8.79688C1.15042 8.59896 1.34574 8.5 1.57143 8.5H19.9048C20.1305 8.5 20.3258 8.59896 20.4907 8.79688C20.6556 8.99479 20.7381 9.22917 20.7381 9.5ZM20.7381 1.5V3.5C20.7381 3.77083 20.6556 4.00521 20.4907 4.20312C20.3258 4.40104 20.1305 4.5 19.9048 4.5H1.57143C1.34574 4.5 1.15042 4.40104 0.985494 4.20312C0.820563 4.00521 0.738098 3.77083 0.738098 3.5V1.5C0.738098 1.22917 0.820563 0.994792 0.985494 0.796875C1.15042 0.598958 1.34574 0.5 1.57143 0.5H19.9048C20.1305 0.5 20.3258 0.598958 20.4907 0.796875C20.6556 0.994792 20.7381 1.22917 20.7381 1.5Z" fill="#E5E5E5"/>
</g>
<defs>
<clipPath id="clip0">
<rect width="20" height="20" fill="white" transform="translate(0.738098 0.5)"/>
</clipPath>
</defs>
</svg>
